<?xml version="1.0" standalone="no"?>
<!DOCTYPE svg PUBLIC "-//W3C//DTD SVG 20010904//EN"
 "http://www.w3.org/TR/2001/REC-SVG-20010904/DTD/svg10.dtd">
<svg version="1.0" xmlns="http://www.w3.org/2000/svg"
 width="342.000000pt" height="342.000000pt" viewBox="0 0 342.000000 342.000000"
 preserveAspectRatio="xMidYMid meet">
<metadata>
Created by potrace 1.11, written by Peter Selinger 2001-2013
</metadata>
<g transform="translate(0.000000,342.000000) scale(0.100000,-0.100000)"
fill="#000000" stroke="none">
<path d="M1482 3404 c-200 -30 -346 -74 -522 -157 -14 -6 -63 -34 -110 -61
-394 -228 -681 -610 -795 -1054 -45 -176 -53 -255 -50 -452 3 -177 19 -292 60
-435 158 -556 597 -1004 1145 -1169 74 -22 245 -61 290 -65 92 -9 353 -6 435
5 566 77 1045 419 1303 929 64 127 135 331 149 430 2 17 9 55 14 85 14 77 20
351 9 435 -9 65 -13 89 -27 169 -8 49 -63 226 -89 290 -65 156 -155 309 -256
433 -38 46 -220 226 -267 263 -161 128 -351 228 -548 290 -112 34 -115 35
-233 56 -110 20 -398 25 -508 8z"/>
</g>
</svg>
